# xmcd CD database file
#
# Track frame offsets:
#	150
#	14042
#	30028
#	48406
#	66934
#	87549
#	103707
#	122703
#	141094
#	155025
#	174974
#	193735
#
# Disc length: 2922 seconds
#
# Revision: 0
# Processed by: cddbd v1.5.2PL0 Copyright (c) Steve Scherf et al.
# Submitted via: CDex 1.51
#
DISCID=a20b680c
DTITLE=Duke Boles - Home
DYEAR=2005
DGENRE=Country
TTITLE0=This Kind Of Love
TTITLE1=Panic
TTITLE2=Home Again
TTITLE3=Love You Better
TTITLE4=Solid Ground
TTITLE5=The Yellow Bus Incident
TTITLE6=The Collaboration Invitation
TTITLE7=Perfect Love
TTITLE8=Rats
TTITLE9=Daniel's Song
TTITLE10=Die A Little
TTITLE11=An Explanation
EXTD=YEAR: 2005
EXTT0=
EXTT1=
EXTT2=
EXTT3=
EXTT4=
EXTT5=
EXTT6=
EXTT7=
EXTT8=
EXTT9=
EXTT10=
EXTT11=
PLAYORDER=
